<?xml version="1.0" standalone="no"?>
<!DOCTYPE svg PUBLIC "-//W3C//DTD SVG 20010904//EN"
 "http://www.w3.org/TR/2001/REC-SVG-20010904/DTD/svg10.dtd">
<svg version="1.0" xmlns="http://www.w3.org/2000/svg"
 width="512.000000pt" height="512.000000pt" viewBox="0 0 512.000000 512.000000"
 preserveAspectRatio="xMidYMid meet">

<g transform="translate(0.000000,512.000000) scale(0.100000,-0.100000)"
fill="#000000" stroke="none">
<path d="M3640 4153 l-385 -388 388 385 c213 212 387 386 387 387 0 7 -32 -24
-390 -384z"/>
<path d="M3667 4152 c-207 -207 -377 -381 -377 -386 0 -13 311 1 439 19 281
40 514 128 640 241 178 160 93 338 -222 469 -47 19 -90 35 -94 35 -4 0 -178
-170 -386 -378z"/>
<path d="M4578 3533 l-3 -598 -26 -56 c-94 -200 -397 -350 -829 -411 -146 -20
-547 -17 -685 6 -311 51 -548 141 -680 259 l-57 50 -348 -348 c-192 -192 -351
-359 -355 -372 -3 -13 -15 -25 -28 -29 -13 -3 -86 -68 -163 -145 -133 -133
-137 -139 -107 -139 56 0 79 -43 47 -88 -14 -20 -24 -22 -102 -22 l-87 0 -200
-200 -199 -199 314 -3 c173 -2 1026 -4 1895 -6 1747 -2 1639 -6 1727 61 27 20
54 55 73 92 l30 59 -4 1240 c-4 1339 -1 1278 -57 1352 -27 34 -87 75 -131 89
l-22 6 -3 -598z m-2374 -1409 c21 -20 20 -53 -1 -76 -14 -16 -34 -18 -196 -18
-195 0 -217 6 -217 56 0 50 17 54 215 54 154 0 186 -3 199 -16z m890 0 c21
-20 20 -53 -1 -76 -14 -16 -34 -18 -193 -18 -192 0 -212 5 -212 53 0 55 8 57
208 57 153 0 185 -3 198 -16z m1400 0 c21 -20 20 -53 -1 -76 -15 -17 -47 -18
-585 -18 -555 0 -568 0 -588 20 -24 24 -25 38 -4 68 l15 22 574 0 c508 0 575
-2 589 -16z m-1310 -390 c23 -22 20 -60 -6 -78 -20 -14 -112 -16 -795 -16
-760 0 -773 0 -793 20 -24 24 -25 38 -4 68 l15 22 784 0 c699 0 785 -2 799
-16z m668 -1 c24 -21 23 -48 -2 -73 -18 -18 -33 -20 -174 -20 -127 0 -157 3
-170 16 -16 16 -20 28 -16 54 5 37 19 40 183 40 135 0 163 -3 179 -17z m653
-7 c18 -27 7 -69 -20 -80 -9 -3 -84 -6 -166 -6 -136 0 -151 2 -169 20 -24 24
-25 38 -4 68 15 21 21 22 179 22 162 0 165 0 180 -24z"/>
<path d="M4415 3914 c-84 -71 -269 -154 -442 -198 -185 -47 -283 -58 -553 -62
l-255 -4 -197 -197 c-109 -109 -194 -200 -190 -204 12 -11 171 -47 292 -65
139 -22 477 -24 620 -6 305 41 549 129 677 245 91 84 94 94 91 326 l-3 199
-40 -34z"/>
<path d="M2945 3458 l-200 -203 203 200 c188 186 207 205 199 205 -1 0 -92
-91 -202 -202z"/>
<path d="M4405 3308 c-298 -230 -946 -322 -1490 -213 -67 13 -148 33 -182 43
l-61 19 -141 -141 c-103 -103 -140 -147 -136 -159 11 -26 104 -93 190 -135
218 -107 476 -157 820 -156 429 0 785 96 962 257 92 85 96 100 94 327 -1 107
-3 195 -4 196 -1 0 -24 -16 -52 -38z"/>
<path d="M2505 3018 l-140 -143 143 140 c132 130 147 145 139 145 -1 0 -65
-64 -142 -142z"/>
<path d="M1940 2453 l-345 -348 348 345 c322 321 351 350 344 350 -1 0 -157
-156 -347 -347z"/>
<path d="M1375 1888 l-140 -143 143 140 c132 130 147 145 139 145 -1 0 -65
-64 -142 -142z"/>
<path d="M925 1438 l-200 -203 203 200 c188 186 207 205 199 205 -1 0 -92 -91
-202 -202z"/>
<path d="M2258 1028 c30 -117 27 -264 -7 -370 l-22 -68 -179 0 c-149 0 -181
-3 -194 -16 -21 -21 -20 -47 2 -67 17 -16 80 -17 705 -17 610 0 687 2 701 16
9 8 16 24 16 34 0 45 -21 50 -210 50 l-179 0 -22 68 c-32 100 -37 245 -11 347
10 44 23 88 27 98 7 16 -12 17 -322 17 l-329 0 24 -92z"/>
</g>
</svg>
