<?xml version="1.0" standalone="no"?>
<!DOCTYPE svg PUBLIC "-//W3C//DTD SVG 20010904//EN"
 "http://www.w3.org/TR/2001/REC-SVG-20010904/DTD/svg10.dtd">
<svg version="1.0" xmlns="http://www.w3.org/2000/svg"
 width="512.000000pt" height="512.000000pt" viewBox="0 0 512.000000 512.000000"
 preserveAspectRatio="xMidYMid meet">

<g transform="translate(0.000000,512.000000) scale(0.100000,-0.100000)"
fill="#000000" stroke="none">
<path d="M3910 4333 l-115 -118 118 115 c64 63 117 116 117 117 0 8 -13 -5
-120 -114z"/>
<path d="M3925 4320 l-100 -100 103 0 102 0 0 100 c0 55 -1 100 -3 100 -1 0
-47 -45 -102 -100z"/>
<path d="M3415 3838 l-270 -273 273 270 c253 251 277 275 269 275 -1 0 -124
-123 -272 -272z"/>
<path d="M3445 3840 l-270 -270 428 0 427 0 0 270 0 270 -158 0 -157 0 -270
-270z"/>
<path d="M4148 3008 c-3 -986 -4 -1035 -22 -1068 -26 -49 -55 -79 -101 -103
l-40 -22 -1285 -3 -1286 -2 -114 -115 -115 -115 1806 0 1805 0 -4 1128 -4
1127 -24 52 c-14 29 -43 68 -66 87 -68 59 -105 66 -340 66 l-208 0 -2 -1032z"/>
<path d="M2900 3323 l-135 -138 138 135 c75 74 137 136 137 137 0 8 -15 -7
-140 -134z"/>
<path d="M2930 3325 l-135 -135 458 0 c444 0 458 -1 477 -20 11 -11 20 -29 20
-40 0 -11 -9 -29 -20 -40 -19 -19 -33 -20 -538 -20 l-517 0 -274 -274 -275
-275 64 -3 c58 -3 66 -6 79 -29 13 -24 13 -29 -2 -53 -17 -26 -19 -26 -135
-26 l-117 0 -84 -84 -84 -85 202 -3 c187 -3 204 -4 217 -22 19 -27 18 -52 -6
-76 -19 -19 -33 -20 -278 -20 l-257 0 -95 -95 -95 -95 1115 -2 c613 -1 1159
-2 1212 -3 83 0 101 3 125 21 54 40 54 36 46 805 l-6 709 -481 0 -481 0 -135
-135z m810 -496 c60 -27 88 -54 116 -114 22 -47 24 -61 24 -240 0 -104 -5
-207 -11 -228 -13 -47 -69 -111 -123 -140 -41 -22 -46 -22 -571 -22 -524 0
-530 0 -570 22 -51 27 -89 68 -112 118 -22 51 -31 352 -14 437 16 73 59 130
123 162 l52 26 520 0 c503 0 523 -1 566 -21z"/>
<path d="M2670 2727 c-19 -7 -44 -27 -57 -46 -22 -32 -23 -43 -23 -213 0 -140
3 -185 15 -208 31 -61 25 -60 575 -60 557 0 543 -2 575 66 23 50 22 356 -3
404 -35 71 -30 70 -567 69 -345 0 -490 -3 -515 -12z"/>
<path d="M2370 2793 l-275 -278 278 275 c152 151 277 276 277 277 0 8 -25 -17
-280 -274z"/>
<path d="M1900 2323 l-85 -88 88 85 c48 46 87 86 87 87 0 8 -11 -3 -90 -84z"/>
<path d="M1600 2023 l-95 -98 98 95 c90 88 102 100 94 100 -1 0 -45 -44 -97
-97z"/>
<path d="M1270 1693 l-115 -118 118 115 c109 107 122 120 114 120 -1 0 -54
-53 -117 -117z"/>
<path d="M880 1303 l-165 -168 168 165 c155 153 172 170 164 170 -1 0 -76 -75
-167 -167z"/>
<path d="M910 1305 l-165 -165 1920 0 1920 0 50 24 c60 27 127 99 143 153 6
21 14 64 18 96 l7 57 -1864 0 -1864 0 -165 -165z"/>
<path d="M2252 958 c31 -99 36 -254 9 -357 -11 -46 -26 -90 -32 -97 -8 -10
-55 -14 -192 -16 l-182 -3 -10 -29 c-8 -24 -6 -31 14 -47 22 -18 51 -19 700
-19 734 0 721 -1 721 54 0 43 -14 46 -201 46 -137 0 -179 3 -188 14 -6 7 -21
51 -32 97 -27 103 -22 258 9 357 l20 62 -328 0 -328 0 20 -62z"/>
</g>
</svg>
