<?xml version="1.0" standalone="no"?>
<!DOCTYPE svg PUBLIC "-//W3C//DTD SVG 20010904//EN"
 "http://www.w3.org/TR/2001/REC-SVG-20010904/DTD/svg10.dtd">
<svg version="1.0" xmlns="http://www.w3.org/2000/svg"
 width="512.000000pt" height="512.000000pt" viewBox="0 0 512.000000 512.000000"
 preserveAspectRatio="xMidYMid meet">

<g transform="translate(0.000000,512.000000) scale(0.100000,-0.100000)"
fill="#000000" stroke="none">
<path d="M2485 5111 c-100 -27 -188 -99 -232 -190 -24 -48 -27 -69 -28 -149
l0 -93 -290 -168 c-628 -363 -952 -550 -1000 -576 l-50 -28 -54 37 c-177 120
-398 64 -498 -126 -24 -46 -28 -64 -28 -143 0 -77 4 -98 27 -147 34 -73 102
-140 173 -169 l55 -23 0 -776 0 -776 -55 -23 c-71 -29 -139 -96 -173 -169 -23
-48 -27 -71 -27 -142 0 -102 28 -173 95 -240 116 -116 291 -129 431 -34 l54
37 50 -28 c50 -28 459 -263 1000 -576 l290 -168 -3 -66 c-8 -146 69 -280 196
-342 75 -36 200 -39 275 -5 66 30 142 104 174 171 24 48 27 69 28 149 l0 93
640 370 c352 204 654 377 670 386 30 14 32 13 84 -21 141 -95 316 -81 431 34
67 67 95 138 95 240 0 71 -4 94 -27 142 -34 73 -102 140 -173 169 l-55 23 0
776 0 776 55 23 c71 29 139 96 173 169 23 48 27 71 27 142 0 102 -28 173 -95
240 -115 115 -290 129 -431 34 -52 -34 -54 -35 -84 -21 -16 9 -318 182 -670
386 l-640 370 0 93 c-1 80 -4 101 -28 149 -33 68 -109 142 -174 170 -53 22
-161 33 -208 20z m155 -173 c132 -67 132 -249 0 -315 -24 -13 -60 -23 -80 -23
-20 0 -56 10 -80 23 -132 66 -132 248 0 315 24 12 60 22 80 22 20 0 56 -10 80
-22z m-198 -473 c106 -39 246 -18 324 49 l40 34 664 -385 c366 -211 670 -387
677 -391 8 -5 9 -21 3 -52 -26 -142 57 -293 196 -357 l54 -24 0 -779 0 -779
-54 -24 c-139 -64 -222 -215 -196 -357 6 -31 5 -47 -3 -52 -7 -4 -311 -180
-677 -391 l-664 -385 -40 34 c-44 38 -145 74 -207 74 -58 0 -164 -38 -206 -75
l-38 -33 -95 55 c-52 31 -356 206 -675 390 -319 184 -581 336 -582 336 -1 1 3
22 7 47 6 28 5 68 -1 105 -20 114 -89 203 -195 252 l-54 24 0 779 0 779 54 24
c106 49 175 138 195 252 6 37 7 77 1 105 -4 25 -8 46 -7 47 1 0 263 152 582
336 319 184 623 359 675 390 l95 55 36 -32 c21 -17 61 -40 91 -51z m-1724
-636 c131 -64 131 -254 0 -318 -55 -26 -107 -27 -156 -2 -69 35 -102 88 -102
161 0 136 134 219 258 159z m3829 10 c67 -25 113 -95 113 -171 0 -55 -25 -104
-73 -142 -34 -27 -47 -31 -101 -31 -51 0 -70 5 -103 27 -79 52 -103 167 -51
246 45 67 141 99 215 71z m-3829 -2230 c63 -31 97 -86 97 -159 0 -188 -252
-247 -337 -79 -33 64 -18 159 33 206 62 57 133 68 207 32z m3870 -16 c169
-135 11 -397 -183 -303 -178 86 -105 352 93 337 39 -3 61 -11 90 -34z m-1948
-1095 c132 -67 132 -249 0 -316 -56 -28 -104 -28 -160 0 -132 67 -132 249 0
316 24 12 60 22 80 22 20 0 56 -10 80 -22z"/>
<path d="M2382 4220 c-65 -15 -99 -63 -139 -191 l-36 -116 -86 -28 c-47 -15
-127 -48 -177 -72 l-90 -45 -112 56 c-115 57 -154 66 -209 45 -37 -14 -261
-235 -279 -276 -25 -58 -17 -97 42 -215 l56 -111 -50 -106 c-28 -58 -61 -138
-73 -177 l-22 -71 -116 -36 c-131 -40 -175 -74 -192 -143 -11 -50 -11 -298 0
-348 17 -69 61 -103 192 -143 l116 -36 22 -71 c12 -39 45 -119 73 -177 l50
-106 -56 -111 c-59 -118 -67 -157 -42 -215 18 -41 242 -262 279 -276 55 -21
94 -12 209 45 l111 56 106 -50 c58 -28 138 -61 177 -73 l71 -22 36 -116 c40
-131 74 -175 143 -192 51 -11 298 -11 348 1 68 15 102 61 144 191 l37 114 80
27 c44 15 123 49 175 74 l96 46 112 -56 c115 -57 154 -66 209 -45 32 12 257
231 279 271 27 52 18 101 -42 220 l-56 112 46 96 c25 52 59 131 74 175 l27 80
114 37 c130 42 176 76 191 144 12 50 12 297 1 348 -17 69 -61 103 -192 143
l-116 36 -22 71 c-12 39 -45 119 -73 177 l-50 106 56 111 c60 119 69 168 42
220 -22 40 -247 259 -279 271 -55 21 -94 12 -209 -45 l-112 -56 -76 38 c-41
21 -120 54 -175 74 l-100 35 -37 114 c-42 130 -76 176 -144 191 -47 11 -306
11 -352 0z m354 -267 c48 -151 64 -168 199 -213 55 -18 144 -54 197 -81 61
-31 111 -49 133 -49 22 0 76 20 150 57 l115 58 97 -98 98 -97 -58 -115 c-37
-74 -57 -128 -57 -150 0 -22 18 -72 49 -133 27 -53 63 -142 81 -197 45 -135
62 -151 213 -199 l117 -37 0 -138 0 -139 -125 -42 c-150 -50 -160 -60 -205
-197 -18 -54 -54 -142 -81 -195 -31 -61 -49 -111 -49 -133 0 -22 20 -76 57
-150 l58 -115 -98 -97 -97 -98 -115 58 c-74 37 -128 57 -150 57 -22 0 -72 -18
-133 -49 -53 -27 -142 -63 -197 -81 -135 -45 -151 -62 -199 -212 l-37 -118
-139 0 -139 0 -37 117 c-47 151 -62 166 -207 217 -60 20 -149 57 -198 81 -54
28 -102 45 -124 45 -22 0 -76 -20 -150 -57 l-115 -58 -97 98 -98 97 58 115
c37 74 57 128 57 150 0 22 -17 70 -45 124 -24 49 -61 138 -81 198 -51 145 -66
160 -217 207 l-117 37 0 139 0 139 117 36 c151 47 166 63 217 208 20 60 57
149 81 198 28 54 45 102 45 124 0 22 -20 76 -57 150 l-58 115 98 97 97 98 115
-58 c74 -37 128 -57 150 -57 22 0 70 17 124 45 49 24 138 61 198 81 145 51
160 66 207 217 l37 117 139 0 139 0 37 -117z"/>
<path d="M2379 3555 c-388 -74 -693 -360 -801 -753 -31 -111 -31 -373 0 -484
86 -313 306 -570 587 -687 149 -62 213 -74 395 -74 182 0 246 11 396 74 177
74 368 240 468 407 202 339 193 757 -25 1081 -138 207 -351 358 -597 422 -102
27 -317 34 -423 14z m349 -160 c400 -84 682 -429 682 -835 0 -472 -378 -850
-850 -850 -405 0 -751 282 -835 680 -19 91 -19 249 0 340 70 331 329 592 660
665 82 18 259 18 343 0z"/>
<path d="M2395 3234 c-193 -47 -366 -187 -455 -369 -51 -103 -70 -187 -70
-305 0 -118 19 -202 70 -305 219 -450 838 -522 1156 -134 206 252 206 626 0
878 -92 112 -237 203 -376 235 -81 19 -245 19 -325 0z m346 -172 c141 -49 262
-168 319 -313 54 -135 37 -342 -36 -454 l-16 -24 -30 35 c-41 46 -101 87 -163
109 -27 10 -51 20 -53 21 -2 1 13 23 32 48 45 59 59 113 54 196 -6 76 -30 129
-84 182 -59 60 -116 83 -204 83 -88 0 -145 -23 -204 -83 -54 -53 -78 -106 -84
-182 -5 -83 9 -137 54 -196 19 -25 34 -47 32 -48 -2 -1 -25 -11 -53 -21 -62
-22 -122 -63 -163 -109 l-30 -35 -15 23 c-46 69 -69 162 -68 271 1 149 49 263
156 370 149 149 359 197 556 127z m-114 -292 c45 -27 65 -62 65 -115 0 -127
-161 -181 -238 -80 -31 41 -35 111 -9 151 23 36 74 64 115 64 19 0 49 -9 67
-20z m161 -516 c52 -26 102 -78 102 -105 0 -20 -91 -73 -170 -99 -96 -32 -231
-31 -329 3 -78 27 -148 69 -158 93 -9 23 43 80 99 108 50 25 58 26 228 26 170
0 178 -1 228 -26z"/>
</g>
</svg>
