<?xml version="1.0" standalone="no"?>
<!DOCTYPE svg PUBLIC "-//W3C//DTD SVG 20010904//EN"
 "http://www.w3.org/TR/2001/REC-SVG-20010904/DTD/svg10.dtd">
<svg version="1.0" xmlns="http://www.w3.org/2000/svg"
 width="512.000000pt" height="512.000000pt" viewBox="0 0 512.000000 512.000000"
 preserveAspectRatio="xMidYMid meet">

<g transform="translate(0.000000,512.000000) scale(0.100000,-0.100000)"
fill="#000000" stroke="none">
<path d="M400 3640 c0 -6 33 -10 80 -10 47 0 80 4 80 10 0 6 -33 10 -80 10
-47 0 -80 -4 -80 -10z"/>
<path d="M730 3640 c0 -7 617 -10 1830 -10 1213 0 1830 3 1830 10 0 7 -617 10
-1830 10 -1213 0 -1830 -3 -1830 -10z"/>
<path d="M4560 3640 c0 -6 33 -10 80 -10 47 0 80 4 80 10 0 6 -33 10 -80 10
-47 0 -80 -4 -80 -10z"/>
<path d="M400 2245 l0 -1365 -161 0 -161 0 4 -243 c4 -197 8 -250 21 -287 43
-112 141 -209 250 -247 49 -17 158 -18 2207 -18 2049 0 2158 1 2207 18 109 38
207 135 250 247 13 37 17 90 21 288 l4 242 -161 0 -161 0 0 1365 0 1365 -80 0
-80 0 0 -1365 0 -1365 -2000 0 -2000 0 0 1365 0 1365 -80 0 -80 0 0 -1365z
m4478 -1683 c-3 -157 -3 -159 -33 -208 -46 -74 -109 -108 -205 -112 l-77 -4
-6 75 c-8 109 -47 175 -132 220 -39 21 -50 22 -425 22 -375 0 -386 -1 -425
-22 -84 -45 -124 -111 -132 -219 l-6 -74 -1517 2 -1517 3 -49 30 c-30 19 -60
49 -79 79 -30 49 -30 51 -33 208 l-3 158 2321 0 2321 0 -3 -158z m-1118 -242
l0 -80 -80 0 -80 0 0 55 c0 78 27 105 105 105 l55 0 0 -80z m320 0 l0 -80 -80
0 -80 0 0 80 0 80 80 0 80 0 0 -80z m295 55 c21 -20 25 -34 25 -80 l0 -55 -80
0 -80 0 0 80 0 80 55 0 c46 0 60 -4 80 -25z"/>
<path d="M725 3597 c-3 -7 -4 -559 -3 -1227 l3 -1215 22 -35 c12 -19 37 -44
55 -55 33 -20 51 -20 1758 -20 l1725 0 35 22 c19 12 44 37 55 55 20 33 20 51
20 1258 l0 1225 -1833 3 c-1470 2 -1834 0 -1837 -11z m3515 -1197 l0 -1200
-1680 0 -1680 0 0 1200 0 1200 1680 0 1680 0 0 -1200z"/>
<path d="M1040 2720 l0 -720 720 0 720 0 0 720 0 720 -720 0 -720 0 0 -720z
m1280 0 l0 -560 -560 0 -560 0 0 560 0 560 560 0 560 0 0 -560z"/>
<path d="M2640 3040 l0 -400 720 0 720 0 0 400 0 400 -720 0 -720 0 0 -400z
m1280 0 l0 -240 -560 0 -560 0 0 240 0 240 560 0 560 0 0 -240z"/>
<path d="M2640 2400 l0 -80 80 0 80 0 0 80 0 80 -80 0 -80 0 0 -80z"/>
<path d="M2960 2400 l0 -80 560 0 560 0 0 80 0 80 -560 0 -560 0 0 -80z"/>
<path d="M2640 2080 l0 -80 720 0 720 0 0 80 0 80 -720 0 -720 0 0 -80z"/>
<path d="M1040 1760 l0 -80 720 0 720 0 0 80 0 80 -720 0 -720 0 0 -80z"/>
<path d="M2640 1760 l0 -80 720 0 720 0 0 80 0 80 -720 0 -720 0 0 -80z"/>
<path d="M1040 1440 l0 -80 720 0 720 0 0 80 0 80 -720 0 -720 0 0 -80z"/>
<path d="M2640 1440 l0 -80 720 0 720 0 0 80 0 80 -720 0 -720 0 0 -80z"/>
</g>
</svg>
